<svg height="503pt" viewBox="0 0 503.97251 503" width="503pt" xmlns="http://www.w3.org/2000/svg"><path d="m495.203125 395.429688c-.023437 27.851562-22.59375 50.421874-50.445313 50.445312h-210.085937c-15.050781-.003906-29.3125-6.75-38.863281-18.378906l-1.511719-2.015625c-6.503906-8.699219-10.007813-19.273438-9.988281-30.132813v-285.628906h-50.441406c-27.839844 0-50.40625-22.566406-50.40625-50.402344 0-27.835937 22.566406-50.402344 50.40625-50.402344h260.53125c27.8125 0 50.359374 22.546876 50.359374 50.359376v285.714843c27.851563.023438 50.421876 22.59375 50.445313 50.441407zm0 0" fill="#607d8b"/><path d="m470.527344 395.429688c-.023438 27.851562-22.59375 50.421874-50.445313 50.445312h-185.410156c-15.050781-.003906-29.3125-6.75-38.863281-18.378906l-1.511719-2.015625c-6.503906-8.699219-10.007813-19.273438-9.988281-30.132813v-285.628906h-50.441406c-27.839844 0-50.40625-22.566406-50.40625-50.402344 0-27.835937 22.566406-50.402344 50.40625-50.402344h235.855468c27.8125 0 50.359375 22.546876 50.359375 50.359376v285.714843c27.851563.023438 50.421875 22.59375 50.445313 50.441407zm0 0" fill="#cfd8dc"/><path d="m184.308594 59.273438v50.445312h-50.441406c-27.828126-.023438-50.371094-22.589844-50.363282-50.417969.007813-27.824219 22.5625-50.378906 50.390625-50.386719 27.824219-.007812 50.390625 22.535157 50.414063 50.359376zm0 0" fill="#607d8b"/><path d="m495.203125 395.429688c-.023437 27.851562-22.59375 50.421874-50.445313 50.445312h-210.085937c27.859375 0 50.441406-22.582031 50.441406-50.445312 0-27.859376-22.582031-50.441407-50.441406-50.441407h210.085937c27.851563.023438 50.421876 22.59375 50.445313 50.441407zm0 0" fill="#cfd8dc"/><path d="m470.359375 395.429688c-.023437 27.851562-22.59375 50.421874-50.445313 50.445312h-185.242187c27.859375 0 50.441406-22.582031 50.441406-50.445312 0-27.859376-22.582031-50.441407-50.441406-50.441407h185.242187c27.851563.023438 50.421876 22.59375 50.445313 50.441407zm0 0" fill="#f4f4f4"/><path d="m196.546875 203.683594h-.050781c-2.121094-1.011719-4.554688-1.136719-6.769532-.351563-2.214843.789063-4.023437 2.425781-5.03125 4.546875l-43.125 90.230469h-.503906l43.125-90.230469c1.011719-2.121094 1.136719-4.558594.351563-6.773437-.789063-2.214844-2.421875-4.027344-4.546875-5.035157h-.050782c-3.085937-1.480468-6.75-1.039062-9.402343 1.125l-112.125 91.085938c-1.253907 1.019531-2.261719 2.304688-2.957031 3.757812l-13.167969 27.558594c-.929688 1.9375-1.261719 4.109375-.957031 6.234375l6.496093 45.285157c.304688 2.125-.023437 4.292968-.949219 6.234374l-7.972656 16.667969 92.175782 43.816407 7.964843-16.671876c.929688-1.941406 2.410157-3.5625 4.257813-4.664062l39.304687-23.394531c1.847657-1.097657 3.328125-2.71875 4.257813-4.65625l13.152344-27.597657c.691406-1.453124 1.058593-3.042968 1.066406-4.652343l.492187-144.535157c0-3.40625-1.957031-6.511718-5.035156-7.980468zm-47.933594 129.375c-5.003906 10.449218-17.527343 14.863281-27.976562 9.863281-10.453125-4.996094-14.875-17.515625-9.882813-27.96875 4.988282-10.453125 17.507813-14.886719 27.960938-9.902344 5.03125 2.398438 8.902344 6.699219 10.757812 11.953125 1.859375 5.253906 1.546875 11.03125-.859375 16.054688zm0 0" fill="#fec108"/><path d="m131.683594 452.339844-7.050782 14.855468-104.835937-50.109374 7.136719-14.855469c1.4375-3.015625 4.019531-5.328125 7.167968-6.433594 3.152344-1.101563 6.613282-.902344 9.617188.558594l82.003906 39.195312c3.027344 1.425781 5.359375 4 6.480469 7.152344 1.117187 3.152344.929687 6.621094-.519531 9.636719zm0 0" fill="#9d27b0"/><path d="m124.632812 467.195312-10.242187 21.320313c-1.433594 3.015625-4.007813 5.339844-7.15625 6.457031-3.148437 1.117188-6.613281.9375-9.628906-.5l-82.085938-39.195312c-6.253906-3.0625-8.875-10.589844-5.878906-16.871094l10.15625-21.320312zm0 0" fill="#673ab7"/><path d="m11.933594 462.832031 82.0625 39.210938c10.457031 4.992187 22.984375.5625 27.976562-9.894531l10.195313-21.34375 7.078125-14.816407c2.507812-5.277343 2.691406-11.367187.503906-16.785156l6.933594-14.46875c.167968-.414063.460937-.761719.835937-1l39.382813-23.433594c3.261718-1.9375 5.871094-4.800781 7.496094-8.226562l13.203124-27.699219c1.21875-2.546875 1.863282-5.332031 1.886719-8.15625l.503907-144.570312c.03125-6.648438-3.765626-12.722657-9.761719-15.601563-.289063-.148437-.589844-.269531-.894531-.371094-2.773438-1.164062-5.800782-1.566406-8.78125-1.175781-1.691407-2.632812-4.078126-4.75-6.890626-6.117188-.273437-.128906-.554687-.238281-.839843-.335937-5.894531-2.445313-12.652344-1.480469-17.625 2.515625l-112.289063 91.339844c-2.117187 1.792968-3.832031 4.007812-5.035156 6.503906l-13.238281 27.699219c-1.605469 3.421875-2.164063 7.242187-1.601563 10.976562l6.4375 45.007813c.113282.589844.027344 1.203125-.25 1.738281l-6.5 13.714844c-.476562.132812-.957031.183593-1.425781.351562-5.253906 1.835938-9.558594 5.699219-11.953125 10.726563l-7.082031 14.832031-10.214844 21.378906c-4.980469 10.460938-.558594 22.980469 9.886719 28zm94.847656 22.082031c-.480469 1.007813-1.339844 1.785157-2.394531 2.15625-1.046875.378907-2.199219.3125-3.195313-.175781l-82.015625-39.207031c-1.011719-.476562-1.789062-1.339844-2.160156-2.398438-.375-1.054687-.308594-2.214843.179687-3.222656l6.589844-13.792968 89.625 42.808593zm-72.285156-79.042968c.476562-1.007813 1.339844-1.785156 2.390625-2.15625.453125-.152344.925781-.234375 1.402343-.234375.621094 0 1.230469.140625 1.789063.410156l82.042969 39.214844c1.015625.476562 1.796875 1.339843 2.167968 2.398437.375 1.054688.3125 2.21875-.175781 3.226563l-3.46875 7.242187-89.597656-42.839844zm95.1875-94.476563c5.605468.019531 10.519531 3.742188 12.0625 9.128907 1.542968 5.382812-.660156 11.140624-5.40625 14.121093-4.742188 2.984375-10.886719 2.46875-15.070313-1.253906-4.183593-3.726563-5.402343-9.769531-2.992187-14.828125 2.097656-4.390625 6.539062-7.183594 11.40625-7.167969zm-79.820313 11.753907 13.203125-27.589844c.160156-.316406.378906-.601563.636719-.839844l112.472656-91.253906c.207031.105468.421875.203125.640625.285156l-43.933594 91.160156c-14.449218-1.609375-27.902343 7.59375-31.640624 21.644532-3.738282 14.046874 3.363281 28.71875 16.699218 34.503906 13.335938 5.785156 28.898438.945312 36.605469-11.382813 7.703125-12.328125 5.230469-28.4375-5.816406-37.890625l44.117187-90.582031.46875.210937-.613281 144.820313c-.023437.347656-.113281.6875-.269531 1l-13.183594 27.613281c-.1875.429688-.503906.785156-.90625 1.023438l-39.359375 23.410156c-3.273437 1.941406-5.882813 4.828125-7.484375 8.285156l-4.449219 9.28125-76.960937-36.78125 4.246094-8.929687c1.707031-3.480469 2.335937-7.390625 1.804687-11.230469l-6.476563-45.324219c-.078124-.476562-.007812-.964843.199219-1.402343zm0 0"/><path d="m453.175781 337.28125v-277.980469c-.035156-32.46875-26.34375-58.777343-58.8125-58.816406h-260.507812c-32.480469 0-58.8125 26.332031-58.8125 58.816406 0 32.480469 26.332031 58.8125 58.8125 58.8125h42.035156v42.023438c0 4.636719 3.757813 8.394531 8.394531 8.394531 4.636719 0 8.394532-3.757812 8.394532-8.394531v-100.835938c0-15.832031-6.402344-30.992187-17.753907-42.027343h219.4375c23.199219.027343 42 18.828124 42.027344 42.027343v277.316407h-201.695313c-4.636718 0-8.394531 3.757812-8.394531 8.394531s3.757813 8.394531 8.394531 8.394531c19.535157-.019531 36.503907 13.425781 40.957032 32.445312 4.453125 19.019532-4.785156 38.597657-22.296875 47.253907s-38.675781 4.105469-51.082031-10.984375c-1.894532-2.394532-4.9375-3.570313-7.949219-3.074219-3.011719.492187-5.515625 2.585937-6.542969 5.457031-1.023438 2.875-.410156 6.082032 1.605469 8.371094 11.183593 13.496094 27.796875 21.316406 45.324219 21.335938h210.089843c30.976563.21875 56.800781-23.648438 59.019531-54.546876 2.214844-30.898437-19.9375-58.210937-50.625-62.417968zm-277.285156-277.980469v42.023438h-42.035156c-23.207031-.003907-42.019531-18.820313-42.015625-42.03125.003906-23.207031 18.820312-42.019531 42.027344-42.019531 23.210937 0 42.023437 18.816406 42.023437 42.027343zm268.894531 378.15625h-169.019531c11.347656-11.035156 17.753906-26.195312 17.753906-42.027343 0-15.828126-6.40625-30.988282-17.753906-42.023438h169.019531c23.207032 0 42.023438 18.816406 42.023438 42.023438 0 23.210937-18.816406 42.027343-42.023438 42.027343zm0 0"/><path d="m411.167969 118.113281c4.636719 0 8.394531-3.757812 8.394531-8.394531s-3.757812-8.394531-8.394531-8.394531h-84.027344c-4.636719 0-8.394531 3.757812-8.394531 8.394531s3.757812 8.394531 8.394531 8.394531zm0 0"/><path d="m226.300781 143.335938c0 4.632812 3.757813 8.390624 8.394531 8.390624h176.472657c4.636719 0 8.394531-3.757812 8.394531-8.390624 0-4.636719-3.757812-8.394532-8.394531-8.394532h-176.472657c-4.636718 0-8.394531 3.757813-8.394531 8.394532zm0 0"/><path d="m234.695312 185.34375h176.472657c4.636719 0 8.394531-3.757812 8.394531-8.394531s-3.757812-8.394531-8.394531-8.394531h-176.472657c-4.636718 0-8.394531 3.757812-8.394531 8.394531s3.757813 8.394531 8.394531 8.394531zm0 0"/><path d="m234.695312 218.949219h176.472657c4.636719 0 8.394531-3.757813 8.394531-8.390625 0-4.636719-3.757812-8.394532-8.394531-8.394532h-176.472657c-4.636718 0-8.394531 3.757813-8.394531 8.394532 0 4.632812 3.757813 8.390625 8.394531 8.390625zm0 0"/><path d="m234.695312 252.574219h176.472657c4.636719 0 8.394531-3.757813 8.394531-8.394531 0-4.632813-3.757812-8.390626-8.394531-8.390626h-176.472657c-4.636718 0-8.394531 3.757813-8.394531 8.390626 0 4.636718 3.757813 8.394531 8.394531 8.394531zm0 0"/><path d="m234.695312 286.148438h92.445313c4.636719 0 8.394531-3.757813 8.394531-8.394532 0-4.632812-3.757812-8.390625-8.394531-8.390625h-92.445313c-4.636718 0-8.394531 3.757813-8.394531 8.390625 0 4.636719 3.757813 8.394532 8.394531 8.394532zm0 0"/></svg>